<?xml version="1.0" standalone="no"?><svg xmlns="http://www.w3.org/2000/svg" viewBox="0 0 1440 320"><path fill="#273036" fill-opacity="1" d="M0,160L7.1,186.7C14.1,213,28,267,42,261.3C56.5,256,71,192,85,138.7C98.8,85,113,43,127,74.7C141.2,107,155,213,169,218.7C183.5,224,198,128,212,80C225.9,32,240,32,254,37.3C268.2,43,282,53,296,69.3C310.6,85,325,107,339,138.7C352.9,171,367,213,381,213.3C395.3,213,409,171,424,154.7C437.6,139,452,149,466,154.7C480,160,494,160,508,186.7C522.4,213,536,267,551,277.3C564.7,288,579,256,593,208C607.1,160,621,96,635,85.3C649.4,75,664,117,678,165.3C691.8,213,706,267,720,250.7C734.1,235,748,149,762,117.3C776.5,85,791,107,805,96C818.8,85,833,43,847,32C861.2,21,875,43,889,53.3C903.5,64,918,64,932,53.3C945.9,43,960,21,974,42.7C988.2,64,1002,128,1016,149.3C1030.6,171,1045,149,1059,149.3C1072.9,149,1087,171,1101,170.7C1115.3,171,1129,149,1144,170.7C1157.6,192,1172,256,1186,277.3C1200,299,1214,277,1228,250.7C1242.4,224,1256,192,1271,192C1284.7,192,1299,224,1313,234.7C1327.1,245,1341,235,1355,245.3C1369.4,256,1384,288,1398,277.3C1411.8,267,1426,213,1433,186.7L1440,160L1440,0L1432.9,0C1425.9,0,1412,0,1398,0C1383.5,0,1369,0,1355,0C1341.2,0,1327,0,1313,0C1298.8,0,1285,0,1271,0C1256.5,0,1242,0,1228,0C1214.1,0,1200,0,1186,0C1171.8,0,1158,0,1144,0C1129.4,0,1115,0,1101,0C1087.1,0,1073,0,1059,0C1044.7,0,1031,0,1016,0C1002.4,0,988,0,974,0C960,0,946,0,932,0C917.6,0,904,0,889,0C875.3,0,861,0,847,0C832.9,0,819,0,805,0C790.6,0,776,0,762,0C748.2,0,734,0,720,0C705.9,0,692,0,678,0C663.5,0,649,0,635,0C621.2,0,607,0,593,0C578.8,0,565,0,551,0C536.5,0,522,0,508,0C494.1,0,480,0,466,0C451.8,0,438,0,424,0C409.4,0,395,0,381,0C367.1,0,353,0,339,0C324.7,0,311,0,296,0C282.4,0,268,0,254,0C240,0,226,0,212,0C197.6,0,184,0,169,0C155.3,0,141,0,127,0C112.9,0,99,0,85,0C70.6,0,56,0,42,0C28.2,0,14,0,7,0L0,0Z"></path></svg>